<svg width="1049" height="365" viewBox="0 0 1049 365" fill="none" xmlns="http://www.w3.org/2000/svg">
<path d="M16.2188 174H12.2812L0 139.734H4.21875L12.0938 161.906C12.9688 164.375 13.6875 166.852 14.25 169.336C14.8281 166.727 15.5625 164.203 16.4531 161.766L24.2812 139.734H28.5703L16.2188 174ZM58.9688 174H54.8438L50.5781 163.102H36.8438L32.625 174H28.5938L42.1406 139.594H45.4922L58.9688 174ZM49.3359 159.516L45.3516 148.898C44.8203 147.523 44.2891 145.875 43.7578 143.953C43.4141 145.422 42.9219 147.07 42.2812 148.898L38.25 159.516H49.3359ZM85.0781 143.273H74.2266V174H70.2422V143.273H59.3906V139.734H85.0781V143.273Z" fill="black"/>
<path d="M867.758 169H863.961V144.578C863.961 142.656 864.023 140.734 864.148 138.812C863.82 139.156 863.5 139.461 863.188 139.727C862.891 139.992 860.984 141.555 857.469 144.414L855.406 141.742L864.477 134.734H867.758V169ZM882.031 166.562C882.031 165.5 882.266 164.695 882.734 164.148C883.219 163.602 883.906 163.328 884.797 163.328C885.703 163.328 886.406 163.602 886.906 164.148C887.422 164.695 887.68 165.484 887.68 166.516C887.68 167.531 887.422 168.312 886.906 168.859C886.406 169.406 885.719 169.68 884.844 169.68C883.969 169.68 883.281 169.422 882.781 168.906C882.281 168.391 882.031 167.609 882.031 166.562ZM912.664 157.586H917.75V161.125H912.664V169H908.938V161.125H892.273V157.727L908.539 134.547H912.664V157.586ZM908.938 157.586V146.219C908.938 143.828 909.016 141.297 909.172 138.625H908.984C908.234 140.125 907.531 141.367 906.875 142.352L896.164 157.586H908.938ZM941 138.32H927.289L926.422 148.609C928.266 148.25 930.055 148.07 931.789 148.07C935.414 148.07 938.25 148.969 940.297 150.766C942.375 152.547 943.414 154.992 943.414 158.102C943.414 161.648 942.281 164.43 940.016 166.445C937.766 168.461 934.68 169.469 930.758 169.469C926.852 169.469 923.883 168.852 921.852 167.617V163.867C922.977 164.586 924.328 165.141 925.906 165.531C927.5 165.922 929.109 166.117 930.734 166.117C933.5 166.117 935.641 165.469 937.156 164.172C938.672 162.859 939.43 160.984 939.43 158.547C939.43 153.766 936.5 151.375 930.641 151.375C929.203 151.375 927.219 151.602 924.688 152.055L922.672 150.766L923.961 134.734H941V138.32ZM963.383 134.734H972.266C980.828 134.734 985.109 138.062 985.109 144.719C985.109 148.188 983.922 150.859 981.547 152.734C979.188 154.594 975.805 155.523 971.398 155.523H967.367V169H963.383V134.734ZM967.367 138.18V152.102H970.953C974.5 152.102 977.055 151.531 978.617 150.391C980.195 149.234 980.984 147.469 980.984 145.094C980.984 142.703 980.234 140.953 978.734 139.844C977.25 138.734 974.945 138.18 971.82 138.18H967.367ZM996.289 165.391H1011.41V169H992.305V134.734H996.289V165.391ZM1044.01 169H1039.46L1020.73 140.242H1020.55C1020.8 143.508 1020.92 146.602 1020.92 149.523V169H1017.24V134.734H1021.74L1040.42 163.375H1040.61L1040.4 159.32C1040.32 157.695 1040.28 156.539 1040.28 155.852C1040.28 155.148 1040.28 154.664 1040.28 154.398V134.734H1044.01V169Z" fill="black"/>
<path d="M907.758 51H903.961V26.5781C903.961 24.6562 904.023 22.7344 904.148 20.8125C903.82 21.1562 903.5 21.4609 903.188 21.7266C902.891 21.9922 900.984 23.5547 897.469 26.4141L895.406 23.7422L904.477 16.7344H907.758V51ZM920.859 33.7031C920.859 27.8281 921.789 23.4453 923.648 20.5547C925.508 17.6484 928.312 16.1953 932.062 16.1953C935.828 16.1953 938.68 17.7031 940.617 20.7188C942.555 23.7188 943.523 28.1406 943.523 33.9844C943.523 39.8125 942.586 44.1875 940.711 47.1094C938.836 50.0156 936.016 51.4688 932.25 51.4688C928.5 51.4688 925.664 49.9766 923.742 46.9922C921.82 43.9922 920.859 39.5625 920.859 33.7031ZM937.781 23.0156C936.625 20.7188 934.758 19.5703 932.18 19.5703C929.602 19.5703 927.727 20.7031 926.555 22.9688C925.383 25.2188 924.797 28.8359 924.797 33.8203C924.797 38.8047 925.383 42.4375 926.555 44.7188C927.727 46.9844 929.602 48.1172 932.18 48.1172C934.758 48.1172 936.625 46.9688 937.781 44.6719C938.953 42.3594 939.539 38.7422 939.539 33.8203C939.539 28.8984 938.953 25.2969 937.781 23.0156ZM963.117 16.7344H972C980.562 16.7344 984.844 20.0625 984.844 26.7188C984.844 30.1875 983.656 32.8594 981.281 34.7344C978.922 36.5938 975.539 37.5234 971.133 37.5234H967.102V51H963.117V16.7344ZM967.102 20.1797V34.1016H970.688C974.234 34.1016 976.789 33.5312 978.352 32.3906C979.93 31.2344 980.719 29.4688 980.719 27.0938C980.719 24.7031 979.969 22.9531 978.469 21.8438C976.984 20.7344 974.68 20.1797 971.555 20.1797H967.102ZM996.023 47.3906H1011.14V51H992.039V16.7344H996.023V47.3906ZM1043.74 51H1039.2L1020.47 22.2422H1020.28C1020.53 25.5078 1020.66 28.6016 1020.66 31.5234V51H1016.98V16.7344H1021.48L1040.16 45.375H1040.34L1040.13 41.3203C1040.05 39.6953 1040.02 38.5391 1040.02 37.8516C1040.02 37.1484 1040.02 36.6641 1040.02 36.3984V16.7344H1043.74V51Z" fill="black"/>
<path d="M4.71094 16.7344H15.2109C20.5391 16.7344 24.6797 18.2109 27.6328 21.1641C30.5859 24.1172 32.0625 28.2422 32.0625 33.5391C32.0625 39.1953 30.5234 43.5234 27.4453 46.5234C24.3672 49.5078 19.9531 51 14.2031 51H4.71094V16.7344ZM8.69531 20.1797V47.5547H13.5469C18.2812 47.5547 21.8438 46.3906 24.2344 44.0625C26.6406 41.7188 27.8438 38.2891 27.8438 33.7734C27.8438 29.2422 26.7188 25.8438 24.4688 23.5781C22.2188 21.3125 18.8906 20.1797 14.4844 20.1797H8.69531ZM37.6875 38.1328C37.6875 33.9453 38.7266 30.6875 40.8047 28.3594C42.8984 26.0156 45.7734 24.8438 49.4297 24.8438C53.1016 24.8438 55.9844 26.0391 58.0781 28.4297C60.2188 30.8047 61.2891 34.0625 61.2891 38.2031C61.2891 42.3438 60.2344 45.5938 58.125 47.9531C56.0156 50.2969 53.1016 51.4688 49.3828 51.4688C49.3203 51.4688 49.2578 51.4688 49.1953 51.4688C45.8047 51.4688 43.0391 50.2656 40.8984 47.8594C38.7578 45.4531 37.6875 42.3203 37.6875 38.4609C37.6875 38.3516 37.6875 38.2422 37.6875 38.1328ZM49.4297 28.1719C44.2891 28.1719 41.7188 31.4922 41.7188 38.1328C41.7188 41.4141 42.375 43.9141 43.6875 45.6328C45.0156 47.3516 46.9453 48.2109 49.4766 48.2109C52.0234 48.2109 53.9531 47.3594 55.2656 45.6562C56.5938 43.9375 57.2578 41.4375 57.2578 38.1562C57.2578 34.875 56.5938 32.3906 55.2656 30.7031C53.9531 29.0156 52.0078 28.1719 49.4297 28.1719ZM74.6484 48.2578C78.8672 48.2578 80.9766 46.9453 80.9766 44.3203C80.9766 43.3203 80.5391 42.4688 79.6641 41.7656C78.8047 41.0469 77.1172 40.2031 74.6016 39.2344C72.1953 38.3438 70.4844 37.5625 69.4688 36.8906C68.4688 36.2188 67.7266 35.4688 67.2422 34.6406C66.7578 33.8125 66.5156 32.8047 66.5156 31.6172C66.5156 29.5391 67.3672 27.8906 69.0703 26.6719C70.7734 25.4531 73.0547 24.8438 75.9141 24.8438C78.7734 24.8438 81.5312 25.4062 84.1875 26.5312L82.8047 29.6953C80.2422 28.6484 77.9766 28.125 76.0078 28.125C74.0547 28.125 72.6016 28.4062 71.6484 28.9688C70.6953 29.5312 70.2188 30.3281 70.2188 31.3594C70.2188 32.0469 70.3906 32.6328 70.7344 33.1172C71.0781 33.6016 71.6406 34.0625 72.4219 34.5C73.2031 34.9375 74.7109 35.5703 76.9453 36.3984C79.9922 37.5078 82.0469 38.625 83.1094 39.75C84.1875 40.875 84.7266 42.2891 84.7266 43.9922C84.7266 46.3828 83.8281 48.2266 82.0312 49.5234C80.25 50.8203 77.7031 51.4688 74.3906 51.4688C71.0938 51.4688 68.4922 50.9297 66.5859 49.8516V46.2422C69.2422 47.5859 71.9297 48.2578 74.6484 48.2578ZM95.2031 25.3125H102.656V28.3359H95.2031V43.4531C95.2031 44.9844 95.5625 46.1719 96.2812 47.0156C97.0156 47.8438 98.0156 48.2578 99.2812 48.2578C100.547 48.2578 101.734 48.1016 102.844 47.7891V50.7891C102.469 50.9766 101.859 51.1328 101.016 51.2578C100.172 51.3984 99.4219 51.4688 98.7656 51.4688C93.7969 51.4688 91.3125 48.8516 91.3125 43.6172V28.3359H87.6328V26.4609L91.3125 24.8438L92.9531 19.3594H95.2031V25.3125ZM108.961 27.0938C111.648 25.625 114.539 24.8906 117.633 24.8906C120.727 24.8906 123 25.5781 124.453 26.9531C125.922 28.3125 126.656 30.4844 126.656 33.4688V51H123.797L123.023 47.3438H122.836C121.555 48.9531 120.273 50.0469 118.992 50.625C117.727 51.1875 116.141 51.4688 114.234 51.4688C111.688 51.4688 109.688 50.8125 108.234 49.5C106.781 48.1719 106.055 46.3047 106.055 43.8984C106.055 38.7266 110.211 36.0078 118.523 35.7422L122.883 35.6016V34.0078C122.883 31.9766 122.445 30.4922 121.57 29.5547C120.711 28.6016 119.258 28.125 117.211 28.125C115.164 28.125 112.812 28.7734 110.156 30.0703L108.961 27.0938ZM110.156 43.9453C110.156 45.3359 110.578 46.4062 111.422 47.1562C112.266 47.8906 113.461 48.2578 115.008 48.2578C117.43 48.2578 119.328 47.5938 120.703 46.2656C122.094 44.9219 122.789 43.0625 122.789 40.6875V38.3672L118.898 38.5312C115.805 38.6406 113.57 39.125 112.195 39.9844C110.836 40.8281 110.156 42.1484 110.156 43.9453ZM160.312 51H155.695L150.984 35.9297C150.766 35.2578 150.211 33.1641 149.32 29.6484H149.133C148.477 32.4766 147.93 34.5859 147.492 35.9766L142.641 51H138.141L131.133 25.3125H135.211C137.086 32.5312 138.344 37.4453 138.984 40.0547C139.875 43.5234 140.375 45.7969 140.484 46.875H140.672C140.812 46.0781 141.094 44.9219 141.516 43.4062C141.938 41.875 142.266 40.7578 142.5 40.0547L147.211 25.3125H151.43L156.023 40.0547C156.93 42.8516 157.523 45.1094 157.805 46.8281H157.992C158.07 46.2656 158.219 45.5 158.438 44.5312C158.656 43.5469 160.305 37.1406 163.383 25.3125H167.414L160.312 51ZM173.039 27.0938C175.727 25.625 178.617 24.8906 181.711 24.8906C184.805 24.8906 187.078 25.5781 188.531 26.9531C190 28.3125 190.734 30.4844 190.734 33.4688V51H187.875L187.102 47.3438H186.914C185.633 48.9531 184.352 50.0469 183.07 50.625C181.805 51.1875 180.219 51.4688 178.312 51.4688C175.766 51.4688 173.766 50.8125 172.312 49.5C170.859 48.1719 170.133 46.3047 170.133 43.8984C170.133 38.7266 174.289 36.0078 182.602 35.7422L186.961 35.6016V34.0078C186.961 31.9766 186.523 30.4922 185.648 29.5547C184.789 28.6016 183.336 28.125 181.289 28.125C179.242 28.125 176.891 28.7734 174.234 30.0703L173.039 27.0938ZM174.234 43.9453C174.234 45.3359 174.656 46.4062 175.5 47.1562C176.344 47.8906 177.539 48.2578 179.086 48.2578C181.508 48.2578 183.406 47.5938 184.781 46.2656C186.172 44.9219 186.867 43.0625 186.867 40.6875V38.3672L182.977 38.5312C179.883 38.6406 177.648 39.125 176.273 39.9844C174.914 40.8281 174.234 42.1484 174.234 43.9453Z" fill="black"/>
<path d="M4.68 299V286.52L2.912 287.56L0.052 282.568L4.68 279.76V261.872H12.532V274.976L16.172 272.74L19.136 277.732L12.532 281.736V292.5H27.612V299H4.68ZM45.1063 270.036C48.9197 270.036 51.8317 270.868 53.8423 272.532C55.8877 274.161 56.9103 276.675 56.9103 280.072V299H51.5023L49.9943 295.152H49.7863C48.989 296.157 48.157 296.989 47.2903 297.648C46.4583 298.307 45.4877 298.775 44.3783 299.052C43.3037 299.364 41.969 299.52 40.3743 299.52C38.7103 299.52 37.2023 299.208 35.8503 298.584C34.533 297.925 33.493 296.937 32.7303 295.62C31.9677 294.268 31.5863 292.569 31.5863 290.524C31.5863 287.508 32.6437 285.289 34.7583 283.868C36.873 282.412 40.045 281.615 44.2743 281.476L49.2143 281.32V280.072C49.2143 278.581 48.8157 277.489 48.0183 276.796C47.2557 276.103 46.181 275.756 44.7943 275.756C43.4077 275.756 42.0557 275.964 40.7383 276.38C39.421 276.761 38.1037 277.247 36.7863 277.836L34.2383 272.584C35.7637 271.787 37.445 271.163 39.2823 270.712C41.1543 270.261 43.0957 270.036 45.1063 270.036ZM46.1983 285.948C43.7023 286.017 41.969 286.468 40.9983 287.3C40.0277 288.132 39.5423 289.224 39.5423 290.576C39.5423 291.755 39.889 292.604 40.5823 293.124C41.2757 293.609 42.177 293.852 43.2863 293.852C44.9503 293.852 46.3543 293.367 47.4983 292.396C48.6423 291.391 49.2143 289.987 49.2143 288.184V285.844L46.1983 285.948ZM52.5423 304.772C52.5423 305.465 52.733 305.985 53.1143 306.332C53.4957 306.679 53.981 306.852 54.5703 306.852C55.125 306.852 55.6623 306.8 56.1823 306.696C56.7023 306.592 57.1357 306.488 57.4823 306.384V310.908C56.9277 311.047 56.3383 311.168 55.7143 311.272C55.0903 311.411 54.3623 311.48 53.5303 311.48C52.2477 311.48 51.121 311.22 50.1503 310.7C49.2143 310.215 48.4863 309.539 47.9663 308.672C47.4463 307.805 47.1863 306.8 47.1863 305.656C47.1863 304.651 47.4463 303.68 47.9663 302.744C48.4863 301.808 49.1623 300.941 49.9943 300.144C50.861 299.381 51.8317 298.705 52.9063 298.116L56.2863 299C55.1077 300.109 54.189 301.115 53.5303 302.016C52.8717 302.952 52.5423 303.871 52.5423 304.772ZM76.375 299.508C67.5391 299.508 63.1211 294.658 63.1211 284.959C63.1211 280.152 64.3229 276.47 66.7266 273.914C69.1302 271.358 72.5749 270.08 77.0605 270.08C80.3613 270.08 83.2982 270.723 85.8711 272.01L83.6113 278.002C80.8691 276.885 78.6855 276.326 77.0605 276.326C73.0319 276.326 71.0176 279.145 71.0176 284.781C71.0176 290.418 73.0319 293.236 77.0605 293.236C79.9043 293.236 82.5534 292.415 85.0078 290.773V297.4C83.6875 298.247 82.418 298.797 81.1992 299.051C79.9297 299.355 78.3216 299.508 76.375 299.508ZM111.363 293.084V299H88.9434V294.43L102.096 276.529H89.7305V270.613H110.906V275.641L98.1094 293.084H111.363ZM133.072 270.08C136.356 270.08 138.853 270.977 140.562 272.771C142.289 274.549 143.152 277.122 143.152 280.49V299H135.408V282.42C135.408 280.355 135.036 278.814 134.291 277.799C133.563 276.783 132.412 276.275 130.838 276.275C128.671 276.275 127.105 277.003 126.141 278.459C125.176 279.915 124.693 282.31 124.693 285.645V299H116.949V270.613H122.865L123.906 274.27H124.338C125.184 272.898 126.361 271.857 127.867 271.146C129.391 270.436 131.126 270.08 133.072 270.08ZM150.795 263.301C150.795 260.762 152.2 259.492 155.01 259.492C157.82 259.492 159.225 260.753 159.225 263.275C159.225 264.494 158.869 265.434 158.158 266.094C157.447 266.754 156.398 267.084 155.01 267.084C152.2 267.084 150.795 265.823 150.795 263.301ZM158.869 299H151.125V270.613H158.869V299ZM189.846 297.502C187.239 298.839 183.913 299.508 179.867 299.508C175.297 299.508 171.725 298.247 169.152 295.725C166.579 293.202 165.293 289.597 165.293 284.908C165.293 280.219 166.478 276.589 168.848 274.016C171.217 271.392 174.459 270.08 178.572 270.08C182.686 270.08 185.851 271.223 188.068 273.508C190.32 275.776 191.445 278.933 191.445 282.979V286.736H173.139C173.223 288.954 173.875 290.68 175.094 291.916C176.329 293.135 178.039 293.744 180.223 293.744C183.439 293.744 186.646 292.999 189.846 291.51V297.502ZM184.184 281.582C184.15 279.686 183.65 278.214 182.686 277.164C181.738 276.115 180.443 275.59 178.801 275.59C177.159 275.59 175.864 276.106 174.916 277.139C173.985 278.171 173.452 279.652 173.316 281.582H184.184Z" fill="black"/>
<path d="M818.48 300H810.635V278.52L810.711 275.016L810.838 271.131C809.535 272.434 808.629 273.289 808.121 273.695L803.855 277.123L800.072 272.4L812.031 262.879H818.48V300ZM848.188 300H840.342V278.52L840.418 275.016L840.545 271.131C839.242 272.434 838.336 273.289 837.828 273.695L833.562 277.123L829.779 272.4L841.738 262.879H848.188V300ZM859.385 296.344C859.385 294.939 859.766 293.872 860.527 293.145C861.289 292.417 862.381 292.053 863.803 292.053C865.242 292.053 866.342 292.425 867.104 293.17C867.882 293.915 868.271 294.973 868.271 296.344C868.271 297.698 867.874 298.764 867.078 299.543C866.299 300.305 865.208 300.686 863.803 300.686C862.415 300.686 861.331 300.313 860.553 299.568C859.774 298.807 859.385 297.732 859.385 296.344ZM895.643 286.213H900.111V292.307H895.643V300H887.975V292.307H872.131V286.848L888.406 262.879H895.643V286.213ZM887.975 286.213V279.916C887.975 279.087 888.008 277.639 888.076 275.574C888.161 273.509 888.237 272.273 888.305 271.867H888.102C887.408 273.391 886.654 274.745 885.842 275.93L879.037 286.213H887.975ZM925.73 269.531H912.502L911.816 276.818L912.705 276.641C913.788 276.404 915.066 276.285 916.539 276.285C920.128 276.285 922.98 277.292 925.096 279.307C927.229 281.321 928.295 284.08 928.295 287.584C928.295 291.731 927.008 294.922 924.436 297.156C921.88 299.391 918.232 300.508 913.492 300.508C909.362 300.508 906.019 299.839 903.463 298.502V291.723C904.851 292.451 906.434 293.035 908.211 293.475C909.988 293.915 911.656 294.135 913.213 294.135C918.003 294.135 920.398 292.171 920.398 288.244C920.398 284.503 917.919 282.633 912.959 282.633C912.13 282.633 911.148 282.726 910.014 282.912C908.88 283.098 907.991 283.285 907.348 283.471L904.225 281.795L905.621 262.879H925.73V269.531ZM948.836 262.879H960.693C965.213 262.879 968.641 263.852 970.977 265.799C973.312 267.745 974.48 270.682 974.48 274.609C974.48 278.52 973.228 281.533 970.723 283.648C968.217 285.747 964.671 286.797 960.084 286.797H956.707V300H948.836V262.879ZM956.707 269.328V280.348H959.297C964.121 280.348 966.533 278.486 966.533 274.762C966.533 272.9 966.025 271.529 965.01 270.648C964.011 269.768 962.437 269.328 960.287 269.328H956.707ZM989.359 293.5H1004.42V300H981.488V262.879H989.359V293.5ZM1043.82 300H1033.82L1017.67 271.918H1017.44C1017.76 276.742 1017.92 280.28 1017.92 282.531V300H1010.89V262.879H1020.82L1036.94 290.682H1037.12C1036.87 285.857 1036.74 282.447 1036.74 280.449V262.879H1043.82V300Z" fill="black"/>
<line x1="5" y1="364.5" x2="1044" y2="364.5" stroke="#B8B8B8"/>
</svg>
