<svg width="110" height="112" viewBox="0 0 110 112" fill="none" xmlns="http://www.w3.org/2000/svg">
<path fill-rule="evenodd" clip-rule="evenodd" d="M14 0C6.268 0 0 6.268 0 14V98C0 105.732 6.268 112 14 112H52C59.732 112 66 105.732 66 98V76.4474H99C105.075 76.4474 110 71.5225 110 65.4474V40C110 33.9249 105.075 29 99 29H66V14C66 6.268 59.732 0 52 0H14ZM61.9821 76.4474H62V98C62 103.523 57.5229 108 52 108H14C8.4772 108 4 103.523 4 98V14C4 8.4772 8.4772 4 14 4H52C57.5229 4 62 8.4772 62 14V29H52C45.9249 29 41 33.9249 41 40V82.8571C41 86.6118 45.3271 88.7153 48.2798 86.3959L60.1289 77.0882C60.6574 76.6731 61.31 76.4474 61.9821 76.4474ZM18 14C16.8954 14 16 14.8954 16 16C16 17.1046 16.8954 18 18 18H47C48.1046 18 49 17.1046 49 16C49 14.8954 48.1046 14 47 14H18ZM52 33C48.134 33 45 36.134 45 40V82.8571C45 83.2743 45.4808 83.508 45.8089 83.2503L57.658 73.9427C58.8912 72.974 60.4139 72.4474 61.9821 72.4474H99C102.866 72.4474 106 69.3134 106 65.4474V40C106 36.134 102.866 33 99 33H52ZM63.5 57C65.433 57 67 55.433 67 53.5C67 51.567 65.433 50 63.5 50C61.567 50 60 51.567 60 53.5C60 55.433 61.567 57 63.5 57ZM80 53.5C80 55.433 78.433 57 76.5 57C74.567 57 73 55.433 73 53.5C73 51.567 74.567 50 76.5 50C78.433 50 80 51.567 80 53.5ZM89.5 57C91.433 57 93 55.433 93 53.5C93 51.567 91.433 50 89.5 50C87.567 50 86 51.567 86 53.5C86 55.433 87.567 57 89.5 57Z" fill="#006EC7"/>
</svg>
